<?xml version="1.0" encoding="UTF-8"?>
<svg width="14px" height="16px" viewBox="0 0 14 16" version="1.1" xmlns="http://www.w3.org/2000/svg" xmlns:xlink="http://www.w3.org/1999/xlink">
    <title>Icon/Big/HighSun Copy</title>
    <g id="desktop" stroke="none" stroke-width="1" fill="none" fill-rule="evenodd">
        <g id="d.-results" transform="translate(-905.000000, -1263.000000)" fill="#6E6E6E">
            <g id="euphorbia" transform="translate(733.000000, 1054.000000)">
                <g id="Icon/Big/OneDrop" transform="translate(171.000000, 209.000000)">
                    <path d="M8.06808511,0.590807627 C7.12978156,1.49100395 2.03120567,6.52212032 2.03120567,9.54543743 C2.03120567,12.8673856 4.73939291,15.5696958 8.06808511,15.5696958 C11.3967773,15.5696958 14.1049645,12.8673856 14.1049645,9.54543743 C14.1049645,6.52212032 9.00638865,1.49100395 8.06808511,0.590807627 M8.06808511,16 C4.50158298,16 1.6,13.1044832 1.6,9.54543743 C1.6,6.04598876 7.66318298,0.376085846 7.92125957,0.136406422 L8.06808511,0 L8.21491064,0.136406422 C8.47298723,0.376085846 14.5361702,6.04598876 14.5361702,9.54543743 C14.5361702,13.1044832 11.6345872,16 8.06808511,16" id="Fill-1"></path>
                </g>
            </g>
        </g>
    </g>
</svg>