<?xml version="1.0" encoding="UTF-8"?>
<svg width="19px" height="19px" viewBox="0 0 19 19" version="1.1" xmlns="http://www.w3.org/2000/svg" xmlns:xlink="http://www.w3.org/1999/xlink">
    <title>Icon/Big/LowSun</title>
    <g id="desktop" stroke="none" stroke-width="1" fill="none" fill-rule="evenodd">
        <g id="d.-results" transform="translate(-877.000000, -1527.000000)" fill="#6E6E6E">
            <g id="ponytail-palm" transform="translate(733.000000, 1319.000000)">
                <g id="Icon/Big/LowSun" transform="translate(144.000000, 208.000000)">
                    <g id="Group-12" transform="translate(0.275362, 0.279412)">
                        <path d="M9.45817281,13.6257446 L9.45817281,18.7205882 L8.99110255,18.7205882 L8.99110255,13.6257446 L9.45817281,13.6257446 Z M12.8926806,12.2732887 L16.1460585,15.5745104 L15.8158398,15.9095853 L12.5624619,12.6083636 L12.8926806,12.2732887 Z M5.55659479,12.5102582 L5.88681347,12.845333 L2.86697068,15.9095853 L2.53675201,15.5745104 L5.55659479,12.5102582 Z M9.22463768,5.56878258 C11.1562068,5.56878258 12.7276646,7.16335015 12.7276646,9.12332465 C12.7276646,11.0832991 11.1562068,12.6778667 9.22463768,12.6778667 C7.29306861,12.6778667 5.72161071,11.0832991 5.72161071,9.12332465 C5.72161071,7.16335015 7.29306861,5.56878258 9.22463768,5.56878258 Z M9.22463768,6.04272152 C7.55065786,6.04272152 6.18868098,7.42472748 6.18868098,9.12332465 C6.18868098,10.8219218 7.55065786,12.2039278 9.22463768,12.2039278 C10.8986175,12.2039278 12.2605944,10.8219218 12.2605944,9.12332465 C12.2605944,7.42472748 10.8986175,6.04272152 9.22463768,6.04272152 Z M4.55393506,9.12332465 L4.55393506,9.59726359 L-2.04799901e-14,9.59726359 L-2.04799901e-14,9.12332465 L4.55393506,9.12332465 Z M18.4492754,9.12332465 L18.4492754,9.59726359 L13.6618052,9.59726359 L13.6618052,9.12332465 L18.4492754,9.12332465 Z M15.5823981,2.33699293 L15.9126168,2.67206776 L12.6592389,5.97328946 L12.3290202,5.63821463 L15.5823981,2.33699293 Z M3.1004124,2.33699293 L6.23702275,5.5197299 L5.90680407,5.85480473 L2.77019373,2.67206776 L3.1004124,2.33699293 Z M9.45817281,0 L9.45817281,4.62090469 L8.99110255,4.62090469 L8.99110255,0 L9.45817281,0 Z" id="Combined-Shape"></path>
                    </g>
                </g>
            </g>
        </g>
    </g>
</svg>