<?xml version="1.0" encoding="UTF-8"?>
<svg width="16px" height="16px" viewBox="0 0 16 16" version="1.1" xmlns="http://www.w3.org/2000/svg" xmlns:xlink="http://www.w3.org/1999/xlink">
    <title>Icon/Big/HighSun</title>
    <g id="desktop" stroke="none" stroke-width="1" fill="none" fill-rule="evenodd">
        <g id="d.-results" transform="translate(-640.000000, -1792.000000)" fill="#6E6E6E">
            <g id="triostar" transform="translate(502.000000, 1584.000000)">
                <g id="Icon/Big/NoSun" transform="translate(137.000000, 207.000000)">
                    <path d="M2.79255652,4.92249706 L3.22690435,5.21579118 C2.48107826,6.35296765 2.08690435,7.67967353 2.08690435,9.05190882 C2.08690435,12.8755853 5.15264348,15.9861441 8.92064348,15.9861441 C10.3478609,15.9861441 11.7145565,15.5446147 12.8738609,14.7089382 L13.1759478,15.1406735 C11.9282087,16.0401441 10.4566435,16.5155559 8.92064348,16.5155559 C4.86490435,16.5155559 1.56516522,13.1675559 1.56516522,9.05190882 C1.56516522,7.57511471 1.9896,6.14702647 2.79255652,4.92249706 Z M2.2424087,1.90122353 L15.9678,15.8284588 C16.0698,15.9319588 16.0698,16.0992529 15.9678,16.2027529 C15.9169304,16.2543706 15.8501478,16.2803118 15.7833652,16.2803118 C15.7165826,16.2803118 15.6498,16.2543706 15.5989304,16.2027529 L1.87353913,2.27551765 C1.77153913,2.17201765 1.77153913,2.00445882 1.87353913,1.90122353 C1.97527826,1.79772353 2.1404087,1.79772353 2.2424087,1.90122353 Z M8.92061739,1.58815588 C12.9763565,1.58815588 16.2760957,4.93642059 16.2760957,9.05206765 C16.2760957,10.5725382 15.8284435,12.0355676 14.9811391,13.2825971 L14.5517478,12.9821559 C15.3385304,11.8238029 15.7543565,10.4645382 15.7543565,9.05206765 C15.7543565,5.22839118 12.6888783,2.11756765 8.92061739,2.11756765 C7.65044348,2.11756765 6.4107913,2.47359706 5.33574783,3.14727353 L5.06157391,2.69674412 C6.21905217,1.97171471 7.55366087,1.58815588 8.92061739,1.58815588 Z" id="Combined-Shape"></path>
                </g>
            </g>
        </g>
    </g>
</svg>