<?xml version="1.0" encoding="UTF-8"?>
<svg width="22px" height="17px" viewBox="0 0 22 17" version="1.1" xmlns="http://www.w3.org/2000/svg" xmlns:xlink="http://www.w3.org/1999/xlink">
    <title>Icon/Big/Pet</title>
    <g id="desktop" stroke="none" stroke-width="1" fill="none" fill-rule="evenodd">
        <g id="d.-results" transform="translate(-847.000000, -1264.000000)" fill="#6E6E6E">
            <g id="euphorbia" transform="translate(733.000000, 1054.000000)">
                <g id="Icon/Big/Pet" transform="translate(114.000000, 210.000000)">
                    <g id="Group-17">
                        <path d="M15.7434222,14.4877905 C15.8323111,14.5753176 15.8356444,14.7207365 15.7509778,14.8123986 C14.4652,16.207777 12.7307556,16.976223 10.8672,16.976223 C9.06586667,16.976223 7.37208889,16.2509662 6.09831111,14.9339257 C6.01142222,14.8443311 6.01142222,14.6989122 6.09831111,14.6090878 C6.18497778,14.5194932 6.32564444,14.5194932 6.41253333,14.6090878 C7.60253333,15.8392905 9.18453333,16.5167635 10.8672,16.5167635 C12.6078667,16.5167635 14.2280889,15.7988581 15.4292,14.4956014 C15.5140889,14.4034797 15.6545333,14.4002635 15.7434222,14.4877905 Z M17.6479111,2.12674595 C18.6716889,3.02016486 19.6832444,5.37420541 20.6614667,7.65105676 C20.8143556,8.00690811 20.9661333,8.3600027 21.1163556,8.70436757 C21.8734667,10.4372189 22.0388,11.7795297 21.6219111,12.8075703 C21.1183556,14.0501784 19.8299111,14.6284081 18.6619111,15.0731649 C18.4672444,15.1471378 18.2670222,15.1836649 18.0688,15.1836649 C17.7274667,15.1836649 17.3919111,15.0754622 17.0983556,14.8641108 C16.6388,14.5326108 16.3643556,13.9893 16.3643556,13.4103811 L16.3643556,2.79043514 C16.3643556,2.46444865 16.5525778,2.1635027 16.8439111,2.0235973 C17.1165778,1.89265135 17.4245778,1.93239459 17.6479111,2.12674595 Z M5.00148889,2.0235973 C5.29282222,2.1635027 5.48104444,2.46444865 5.48104444,2.79043514 L5.48104444,13.4103811 C5.48104444,13.9893 5.2066,14.5326108 4.74704444,14.8641108 C4.45371111,15.0754622 4.11793333,15.1836649 3.7766,15.1836649 C3.57815556,15.1836649 3.37815556,15.1471378 3.18348889,15.0731649 C2.01548889,14.6284081 0.727044444,14.0501784 0.223488889,12.8075703 C-0.1934,11.7795297 -0.0280666667,10.4372189 0.729044444,8.70436757 C0.879266667,8.3600027 1.03104444,8.00690811 1.18393333,7.65105676 L1.4515318,7.0293389 C2.34617576,4.95826929 3.26678182,2.93894496 4.19748889,2.12674595 C4.4206,1.93239459 4.72837778,1.89265135 5.00148889,2.0235973 Z M17.1754667,2.40632703 C17.1130222,2.40632703 17.0601333,2.42654324 17.0312444,2.44032703 C16.9285778,2.48948919 16.8088,2.61101622 16.8088,2.79043514 L16.8088,13.4103811 C16.8088,13.8454892 17.0070222,14.2380973 17.3525778,14.4871243 C17.6956889,14.7345432 18.1170222,14.790827 18.5083556,14.6419622 C19.6381333,14.2119081 20.7774667,13.7023676 21.2121333,12.6302189 C21.5785778,11.7260027 21.4148,10.5036108 20.7114667,8.89320541 C20.5605778,8.54838108 20.4083556,8.19413784 20.2552444,7.8375973 L19.9932805,7.22889118 C19.117755,5.2013822 18.2210424,3.22796585 17.3612444,2.4780027 C17.2985778,2.42332703 17.2330222,2.40632703 17.1754667,2.40632703 Z M4.66993333,2.40632703 C4.61237778,2.40632703 4.54682222,2.42332703 4.48415556,2.4780027 C3.53837778,3.30296216 2.54793333,5.6083 1.59015556,7.8375973 C1.43704444,8.19413784 1.28482222,8.54838108 1.13415556,8.89320541 C0.4306,10.5036108 0.266822222,11.7260027 0.633266667,12.6302189 C1.06793333,13.7023676 2.20726667,14.2119081 3.33704444,14.6419622 C3.7286,14.790827 4.14971111,14.7345432 4.49282222,14.4871243 C4.83837778,14.2380973 5.0366,13.8454892 5.0366,13.4103811 L5.0366,2.79043514 C5.0366,2.61101622 4.91682222,2.48948919 4.81415556,2.44032703 C4.78526667,2.42654324 4.73237778,2.40632703 4.66993333,2.40632703 Z M10.9228,10.9278068 C11.7759111,10.9278068 12.4674667,11.4044959 12.4674667,11.9926041 C12.4674667,12.5804824 11.7759111,13.0571716 10.9228,13.0571716 C10.0694667,13.0571716 9.37813333,12.5804824 9.37813333,11.9926041 C9.37813333,11.4044959 10.0694667,10.9278068 10.9228,10.9278068 Z M7.66166667,7.91163919 C7.94611111,7.91163919 8.17655556,8.14986892 8.17655556,8.44392297 C8.17655556,8.7377473 7.94611111,8.97597703 7.66166667,8.97597703 C7.37722222,8.97597703 7.14677778,8.7377473 7.14677778,8.44392297 C7.14677778,8.14986892 7.37722222,7.91163919 7.66166667,7.91163919 Z M14.1838,7.91163919 C14.4680222,7.91163919 14.6986889,8.14986892 14.6986889,8.44392297 C14.6986889,8.7377473 14.4680222,8.97597703 14.1838,8.97597703 C13.8993556,8.97597703 13.6689111,8.7377473 13.6689111,8.44392297 C13.6689111,8.14986892 13.8993556,7.91163919 14.1838,7.91163919 Z M10.9782222,0.229821622 C12.7797778,0.229821622 14.4733333,0.954848649 15.7471111,2.27165946 C15.834,2.36148378 15.834,2.5069027 15.7471111,2.5964973 C15.6604444,2.68632162 15.5197778,2.68632162 15.4328889,2.5964973 C14.2431111,1.36652432 12.6611111,0.689281081 10.9782222,0.689281081 C9.23755556,0.689281081 7.61733333,1.40718649 6.41622222,2.71021351 C6.37244444,2.75776757 6.314,2.78165946 6.25533333,2.78165946 C6.20022222,2.78165946 6.14511111,2.76052432 6.102,2.71825405 C6.01311111,2.63072703 6.00977778,2.48530811 6.09444444,2.39364595 C7.38022222,0.998037838 9.11466667,0.229821622 10.9782222,0.229821622 Z" id="Combined-Shape"></path>
                    </g>
                </g>
            </g>
        </g>
    </g>
</svg>