<svg width="35" height="39" viewBox="0 0 35 39" fill="none" xmlns="http://www.w3.org/2000/svg">
<path fill-rule="evenodd" clip-rule="evenodd" d="M34.6171 23.0186C34.0428 22.3582 33.0368 22.2806 32.3668 22.8446L19.0943 34.0237V1.57245C19.0943 0.704459 18.3796 0 17.499 0C16.6184 0 15.9038 0.704459 15.9038 1.57245V34.0237L2.63124 22.8446C1.96124 22.2806 0.955165 22.3582 0.380874 23.0186C-0.189164 23.6812 -0.110464 24.6728 0.557415 25.2368L16.4632 38.6299C16.5419 38.6949 16.6354 38.7285 16.7205 38.7767C16.7865 38.8144 16.846 38.8627 16.9183 38.8899C17.2927 39.0367 17.7075 39.0367 18.0839 38.8899C18.1563 38.8627 18.2116 38.8144 18.2775 38.7767C18.3647 38.7285 18.4583 38.6949 18.5349 38.6299L34.4406 25.2368C34.8086 24.9244 35 24.4842 35 24.0397C35 23.677 34.8724 23.3163 34.6171 23.0186Z" fill="white"/>
</svg>
