<svg width="20" height="23" viewBox="0 0 20 23" fill="none" xmlns="http://www.w3.org/2000/svg">
<path d="M18.4608 9.31054L18.7474 9.58949L19.0264 9.30281L18.7397 9.02386L18.4608 9.31054ZM9.86986 0.951354L10.1488 0.664671V0.664671L9.86986 0.951354ZM17.9029 9.88391L17.6239 10.1706L17.9106 10.4495L18.1895 10.1629L17.9029 9.88391ZM9.99091 2.18536L10.2699 1.89867L9.59091 1.23804V2.18536H9.99091ZM9.99091 22.5159V22.9159H10.3909V22.5159H9.99091ZM9.19091 22.5159H8.79091V22.9159H9.19091V22.5159ZM9.19091 2.18536H9.59091V1.23804L8.91196 1.89867L9.19091 2.18536ZM1.27895 9.88391L0.992266 10.1629L1.27122 10.4495L1.5579 10.1706L1.27895 9.88391ZM0.721048 9.31054L0.442099 9.02386L0.155416 9.30281L0.434366 9.58949L0.721048 9.31054ZM9.31196 0.951354L9.03301 0.664671V0.664671L9.31196 0.951354ZM9.59091 0.679929L9.86986 0.393246L9.59091 0.121821L9.31196 0.393246L9.59091 0.679929ZM18.7397 9.02386L10.1488 0.664671L9.59091 1.23804L18.1818 9.59722L18.7397 9.02386ZM18.1895 10.1629L18.7474 9.58949L18.1741 9.03159L17.6162 9.60496L18.1895 10.1629ZM9.71196 2.47204L17.6239 10.1706L18.1818 9.59722L10.2699 1.89867L9.71196 2.47204ZM10.3909 22.5159V2.18536H9.59091L9.59091 22.5159H10.3909ZM9.19091 22.9159H9.99091V22.1159H9.19091V22.9159ZM8.79091 2.18536L8.79091 22.5159H9.59091L9.59091 2.18536H8.79091ZM1.5579 10.1706L9.46986 2.47204L8.91196 1.89867L0.999998 9.59722L1.5579 10.1706ZM0.434366 9.58949L0.992266 10.1629L1.56563 9.60496L1.00773 9.03159L0.434366 9.58949ZM9.03301 0.664671L0.442099 9.02386L0.999998 9.59722L9.59091 1.23804L9.03301 0.664671ZM9.31196 0.393246L9.03301 0.664671L9.59091 1.23804L9.86986 0.966612L9.31196 0.393246ZM10.1488 0.664671L9.86986 0.393246L9.31196 0.966612L9.59091 1.23804L10.1488 0.664671Z" fill="#15573F"/>
</svg>
