<svg xmlns="http://www.w3.org/2000/svg" viewBox="0 0 74.69 62.14"><title>Icon dog.</title><defs><style>.cls-1{fill:#fd9872;}.cls-2{fill:#b75435;}.cls-3{fill:#381b07;}.cls-4{fill:none;stroke:#e27d5a;stroke-miterlimit:10;}.cls-5{fill:#fff;}</style></defs><g id="face"><path class="cls-1" d="M5.85,37.47c.44-5.3,3.1-13.89,4.66-18.58A24.92,24.92,0,0,1,27.31,2.56a23.62,23.62,0,0,1,7-.88c.55,0,1.1,0,1.65.08a23.22,23.22,0,0,1,16.67,9.45A18.53,18.53,0,0,1,56,20.35l.21,2.06a3.47,3.47,0,0,0,3.35,2.53l11.15-.46a5.14,5.14,0,0,1,5.37,4.91c.35,8.1-.14,23-8.41,23.91l-55.15-.72a7.07,7.07,0,0,1-7-6.86A75.57,75.57,0,0,1,5.85,37.47Z" transform="translate(-3.13 -1.67)"/></g><g id="ear"><path class="cls-2" d="M22.51,9.83c-1.68-2.2-4.27-3-6.56.14C9.75,18.49-2,40.39,5.65,55.91c5.14,10.4,20.38,10.4,26.76.74C37.1,49.53,37.86,29.93,22.51,9.83Z" transform="translate(-3.13 -1.67)"/></g><g id="eye"><ellipse class="cls-3" cx="41.87" cy="21.64" rx="1.78" ry="2.33"/></g><g id="nose"><path class="cls-3" d="M67,27.13h0a3.75,3.75,0,0,0,4,3.43h2.78a3.75,3.75,0,0,0,4-3.43h0a3.74,3.74,0,0,0-4-3.43H71A3.74,3.74,0,0,0,67,27.13Z" transform="translate(-3.13 -1.67)"/></g><g id="mouth"><path class="cls-4" d="M61.09,37l15-.05" transform="translate(-3.13 -1.67)"/></g><g id="teeth"><path class="cls-5" d="M62.52,37.51,65,41l2.54-3.29a.16.16,0,0,1,.27,0l1.68,3.39,2.28-3.47a.13.13,0,0,1,.21,0l1.92,3.46,2-3.63Z" transform="translate(-3.13 -1.67)"/></g></svg>