<svg width="18" height="18" viewBox="0 0 18 18" fill="none" xmlns="http://www.w3.org/2000/svg">
<path fill-rule="evenodd" clip-rule="evenodd" d="M14.9812 13.2826L14.5518 12.9821C15.3386 11.8238 15.7544 10.4645 15.7544 9.05205C15.7544 5.22837 12.6889 2.11755 8.92064 2.11755C7.65046 2.11755 6.41081 2.47358 5.33577 3.14725L5.06159 2.69672C6.21907 1.97169 7.55368 1.58813 8.92064 1.58813C12.9764 1.58813 16.2761 4.9364 16.2761 9.05205C16.2761 10.5725 15.8285 12.0355 14.9812 13.2826ZM8.92066 16.5155C4.86492 16.5155 1.56519 13.1675 1.56519 9.05189C1.56519 7.57509 1.98962 6.14701 2.79258 4.92248L3.22692 5.21577C2.4811 6.35295 2.08692 7.67965 2.08692 9.05189C2.08692 12.8756 5.15266 15.9861 8.92066 15.9861C10.3479 15.9861 11.7146 15.5446 12.8739 14.7089L13.176 15.1407C11.9282 16.0401 10.4567 16.5155 8.92066 16.5155ZM15.599 16.2027C15.6498 16.2544 15.7166 16.2803 15.7834 16.2803C15.8502 16.2803 15.917 16.2544 15.9678 16.2027C16.0698 16.0992 16.0698 15.9319 15.9678 15.8284L2.24243 1.9012C2.14043 1.7977 1.9753 1.7977 1.87356 1.9012C1.77156 2.00444 1.77156 2.172 1.87356 2.2755L15.599 16.2027Z" fill="#6E6E6E"/>
</svg>
