<svg width="18" height="19" viewBox="0 0 18 19" fill="none" xmlns="http://www.w3.org/2000/svg">
<path fill-rule="evenodd" clip-rule="evenodd" d="M7.35485 0.514286C3.58308 0.514286 0.514333 3.58303 0.514333 7.35506V8.07531C0.514333 10.862 2.19219 13.348 4.78882 14.409C4.8855 14.4483 4.94876 14.5427 4.94876 14.6471V16.3823C4.94876 17.1296 5.55665 17.7377 6.30416 17.7377H6.85324V15.9857C6.85324 15.8435 6.96844 15.7285 7.11038 15.7285C7.25233 15.7285 7.36753 15.8435 7.36753 15.9857V17.7377H10.0782V15.9857C10.0782 15.8435 10.1934 15.7285 10.3353 15.7285C10.4773 15.7285 10.5925 15.8435 10.5925 15.9857V17.7377H11.5447C12.292 17.7377 12.9001 17.1296 12.9001 16.3823V14.6471C12.9001 14.5427 12.9634 14.4483 13.0601 14.409C15.6567 13.348 17.3346 10.862 17.3346 8.07531V7.35506C17.3346 3.58303 14.2658 0.514286 10.494 0.514286H7.35485ZM10.3436 18.252H11.5448C12.5757 18.252 13.4145 17.4135 13.4145 16.3823V14.8176C16.1142 13.6419 17.8489 11.0142 17.8489 8.07531V7.35506C17.8489 3.2994 14.5495 0 10.4941 0H7.35492C3.29952 0 0.00012207 3.2994 0.00012207 7.35506V8.07531C0.00012207 11.0142 1.73481 13.6419 4.43455 14.8176V16.3823C4.43455 17.4135 5.27309 18.252 6.30424 18.252H7.10213L7.11038 18.2521L7.11863 18.252H10.3271L10.3353 18.2521L10.3436 18.252ZM5.49784 7.77055C4.52815 7.77055 3.73924 8.55946 3.73924 9.52915C3.73924 10.4986 4.52815 11.2878 5.49784 11.2878C6.46752 11.2878 7.25618 10.4986 7.25618 9.52915C7.25618 8.55946 6.46752 7.77055 5.49784 7.77055ZM5.49784 11.802C4.24452 11.802 3.22495 10.7825 3.22495 9.52915C3.22495 8.27584 4.24452 7.25626 5.49784 7.25626C6.75115 7.25626 7.77047 8.27584 7.77047 9.52915C7.77047 10.7825 6.75115 11.802 5.49784 11.802ZM10.5924 9.52915C10.5924 8.55946 11.3813 7.77055 12.351 7.77055C13.3207 7.77055 14.1094 8.55946 14.1094 9.52915C14.1094 10.4986 13.3207 11.2878 12.351 11.2878C11.3813 11.2878 10.5924 10.4986 10.5924 9.52915ZM10.0781 9.52915C10.0781 10.7825 11.0977 11.802 12.351 11.802C13.6043 11.802 14.6237 10.7825 14.6237 9.52915C14.6237 8.27584 13.6043 7.25626 12.351 7.25626C11.0977 7.25626 10.0781 8.27584 10.0781 9.52915Z" fill="#6E6E6E"/>
</svg>
