<svg width="24" height="16" viewBox="0 0 24 16" fill="none" xmlns="http://www.w3.org/2000/svg">
<path fill-rule="evenodd" clip-rule="evenodd" d="M6.85714 0.514699C5.8624 1.41934 0.457139 6.4753 0.457139 9.51354C0.457139 12.8519 3.32823 15.5675 6.85714 15.5675C10.3861 15.5675 13.2571 12.8519 13.2571 9.51354C13.2571 6.4753 7.85188 1.41934 6.85714 0.514699ZM6.85714 16C3.07612 16 0 13.0902 0 9.51355C0 5.99682 6.42789 0.298916 6.70149 0.0580536C6.78926 -0.0193512 6.92503 -0.0193512 7.0128 0.0580536C7.2864 0.298916 13.7143 5.99682 13.7143 9.51355C13.7143 13.0902 10.6382 16 6.85714 16ZM11.8857 16C11.6752 16 11.4615 15.9907 11.251 15.9725C11.1252 15.9615 11.0327 15.8564 11.0443 15.7375C11.0558 15.6186 11.1664 15.531 11.2928 15.5418C11.4894 15.5589 11.6889 15.5676 11.8857 15.5676C15.4146 15.5676 18.2857 12.8517 18.2857 9.51357C18.2857 6.47511 12.8798 1.41871 11.8855 0.51472C11.6212 0.754286 11.045 1.28682 10.3474 1.99147C10.2608 2.07838 10.1161 2.08292 10.0242 2.00141C9.9321 1.9199 9.9273 1.78303 10.0137 1.6959C10.9708 0.729259 11.7037 0.0813892 11.7294 0.0586452L11.73 0.0580752C11.8178 -0.0193296 11.9536 -0.0193296 12.0414 0.0580752C12.315 0.298938 18.7428 5.99684 18.7428 9.51357C18.7428 13.0902 15.6667 16 11.8857 16ZM16.5081 15.9725C16.7186 15.9907 16.9323 16 17.1429 16C20.9239 16 24 13.0902 24 9.51357C24 5.99684 17.5721 0.298938 17.2985 0.0580752C17.2107 -0.0193296 17.075 -0.0193296 16.9872 0.0580752L16.9866 0.058632C16.9611 0.0811371 16.2282 0.72907 15.2709 1.6959C15.1845 1.78303 15.1893 1.9199 15.2814 2.00141C15.3735 2.08292 15.5177 2.07838 15.6046 1.99147C16.3022 1.28682 16.8784 0.754286 17.1426 0.51472C18.1369 1.41871 23.5428 6.47511 23.5428 9.51357C23.5428 12.8517 20.6718 15.5676 17.1429 15.5676C16.9461 15.5676 16.7465 15.5589 16.5499 15.5418C16.4229 15.531 16.3129 15.6186 16.3015 15.7375C16.2898 15.8564 16.3824 15.9615 16.5081 15.9725Z" fill="#6E6E6E"/>
</svg>
