<svg width="19" height="19" viewBox="0 0 19 19" fill="none" xmlns="http://www.w3.org/2000/svg">
<path fill-rule="evenodd" clip-rule="evenodd" d="M9.26649 4.90032H9.73356V0.279419H9.26649V4.90032ZM9.50003 6.32215C7.82605 6.32215 6.46407 7.70415 6.46407 9.40275C6.46407 11.1013 7.82605 12.4834 9.50003 12.4834C11.174 12.4834 12.536 11.1013 12.536 9.40275C12.536 7.70415 11.174 6.32215 9.50003 6.32215ZM9.50003 12.9573C7.56846 12.9573 5.997 11.3627 5.997 9.40275C5.997 7.44277 7.56846 5.84821 9.50003 5.84821C11.4316 5.84821 13.0031 7.44277 13.0031 9.40275C13.0031 11.3627 11.4316 12.9573 9.50003 12.9573ZM9.73356 19H9.26649V13.9052H9.73356V19ZM0.275391 9.87668H4.82933V9.40274H0.275391V9.87668ZM18.7247 9.87668H13.9372V9.40274H18.7247V9.87668ZM6.18219 6.13423L3.04558 2.95149L3.3758 2.61642L6.51241 5.79915L6.18219 6.13423ZM12.8379 12.8878L16.0912 16.189L16.4215 15.8539L13.1681 12.5527L12.8379 12.8878ZM3.14236 16.189L2.81214 15.8539L5.83198 12.7897L6.1622 13.1247L3.14236 16.189ZM12.6044 5.91764L12.9346 6.25271L16.188 2.95149L15.8578 2.61642L12.6044 5.91764Z" fill="#6E6E6E"/>
</svg>
