<svg width="22" height="17" viewBox="0 0 22 17" fill="none" xmlns="http://www.w3.org/2000/svg">
<path d="M6.25532 2.7817C6.20021 2.7817 6.14509 2.76056 6.10198 2.71829C6.01309 2.63076 6.00976 2.48534 6.09443 2.39368C7.38021 0.998075 9.11465 0.229858 10.9782 0.229858C12.7798 0.229858 14.4733 0.954886 15.7471 2.2717C15.834 2.36152 15.834 2.50694 15.7471 2.59653C15.6604 2.68636 15.5198 2.68636 15.4329 2.59653C14.2431 1.36656 12.6611 0.689318 10.9782 0.689318C9.23754 0.689318 7.61732 1.40722 6.41621 2.71025C6.37243 2.7578 6.31398 2.7817 6.25532 2.7817Z" fill="#6E6E6E"/>
<path fill-rule="evenodd" clip-rule="evenodd" d="M3.77657 15.1837C3.57812 15.1837 3.37812 15.1472 3.18346 15.0732C2.01546 14.6284 0.727013 14.0502 0.223458 12.8076C-0.193431 11.7796 -0.028098 10.4373 0.729013 8.7044C0.879235 8.36004 1.03101 8.00695 1.1839 7.65109C2.16212 5.37424 3.17368 3.0202 4.19746 2.12678C4.42057 1.93243 4.72835 1.89269 5.00146 2.02363C5.29279 2.16354 5.48101 2.46449 5.48101 2.79047V13.4104C5.48101 13.9893 5.20657 14.5326 4.74701 14.8641C4.45368 15.0755 4.1179 15.1837 3.77657 15.1837ZM4.66995 2.40636C4.61239 2.40636 4.54683 2.42336 4.48417 2.47804C3.53839 3.30299 2.54796 5.60831 1.59018 7.8376C1.43707 8.19414 1.28483 8.54842 1.13417 8.89324C0.430611 10.5036 0.266834 11.726 0.633278 12.6303C1.06794 13.7024 2.20728 14.2119 3.33706 14.642C3.72861 14.7909 4.14972 14.7346 4.49283 14.4872C4.83839 14.2381 5.03661 13.8455 5.03661 13.4104V2.79047C5.03661 2.61105 4.91683 2.48953 4.81417 2.44036C4.78528 2.42658 4.73239 2.40636 4.66995 2.40636Z" fill="#6E6E6E"/>
<path fill-rule="evenodd" clip-rule="evenodd" d="M18.0688 15.1837C17.7275 15.1837 17.3919 15.0755 17.0984 14.8641C16.6388 14.5326 16.3644 13.9893 16.3644 13.4104V2.79047C16.3644 2.46449 16.5526 2.16354 16.8439 2.02363C17.1166 1.89269 17.4246 1.93243 17.6479 2.12678C18.6717 3.0202 19.6833 5.37424 20.6615 7.65109C20.8144 8.00695 20.9661 8.36004 21.1164 8.7044C21.8735 10.4373 22.0388 11.7796 21.6219 12.8076C21.1184 14.0502 19.8299 14.6284 18.6619 15.0732C18.4673 15.1472 18.267 15.1837 18.0688 15.1837ZM17.1754 2.40636C17.113 2.40636 17.0601 2.42658 17.0312 2.44036C16.9285 2.48953 16.8088 2.61105 16.8088 2.79047V13.4104C16.8088 13.8455 17.007 14.2381 17.3525 14.4872C17.6957 14.7346 18.117 14.7909 18.5083 14.642C19.6381 14.2119 20.7774 13.7024 21.2121 12.6303C21.5785 11.726 21.4148 10.5036 20.7114 8.89324C20.5605 8.54842 20.4083 8.19417 20.2552 7.83763C19.2974 5.60835 18.307 3.303 17.3612 2.47804C17.2985 2.42336 17.233 2.40636 17.1754 2.40636Z" fill="#6E6E6E"/>
<path d="M10.9227 13.0572C11.7758 13.0572 12.4674 12.5805 12.4674 11.9926C12.4674 11.4045 11.7758 10.9278 10.9227 10.9278C10.0694 10.9278 9.37806 11.4045 9.37806 11.9926C9.37806 12.5805 10.0694 13.0572 10.9227 13.0572Z" fill="#6E6E6E"/>
<path d="M8.17654 8.44396C8.17654 8.73778 7.9461 8.97601 7.66165 8.97601C7.37721 8.97601 7.14676 8.73778 7.14676 8.44396C7.14676 8.14991 7.37721 7.91168 7.66165 7.91168C7.9461 7.91168 8.17654 8.14991 8.17654 8.44396Z" fill="#6E6E6E"/>
<path d="M14.1838 8.97601C14.468 8.97601 14.6987 8.73778 14.6987 8.44396C14.6987 8.14991 14.468 7.91168 14.1838 7.91168C13.8993 7.91168 13.6689 8.14991 13.6689 8.44396C13.6689 8.73778 13.8993 8.97601 14.1838 8.97601Z" fill="#6E6E6E"/>
<path d="M6.09824 14.934C7.37202 16.251 9.0658 16.9763 10.8671 16.9763C12.7307 16.9763 14.4651 16.2078 15.7509 14.8124C15.8356 14.7208 15.8322 14.5754 15.7434 14.4878C15.6545 14.4003 15.514 14.4035 15.4291 14.4956C14.228 15.7989 12.6078 16.5168 10.8671 16.5168C9.18446 16.5168 7.60246 15.8393 6.41246 14.6091C6.32558 14.5195 6.18491 14.5195 6.09824 14.6091C6.01135 14.6989 6.01135 14.8444 6.09824 14.934Z" fill="#6E6E6E"/>
</svg>
