<svg width="19" height="19" viewBox="0 0 19 19" fill="none" xmlns="http://www.w3.org/2000/svg">
<path d="M9.2595 3.36709H9.74051V0H9.2595V3.36709Z" fill="#6E6E6E"/>
<path fill-rule="evenodd" clip-rule="evenodd" d="M9.5 14.1899C6.78131 14.1899 4.56962 11.9782 4.56962 9.25949C4.56962 6.54081 6.78131 4.32911 9.5 4.32911C12.2187 4.32911 14.4304 6.54081 14.4304 9.25949C14.4304 11.9782 12.2187 14.1899 9.5 14.1899ZM9.49999 4.81013C7.04659 4.81013 5.05063 6.80609 5.05063 9.25949C5.05063 11.7129 7.04659 13.7089 9.49999 13.7089C11.9534 13.7089 13.9494 11.7129 13.9494 9.25949C13.9494 6.80609 11.9534 4.81013 9.49999 4.81013Z" fill="#6E6E6E"/>
<path d="M9.74051 19H9.2595V15.6329H9.74051V19Z" fill="#6E6E6E"/>
<path d="M0 9.74051H3.36709V9.25949H0V9.74051Z" fill="#6E6E6E"/>
<path d="M19 9.74051H15.6329V9.25949H19V9.74051Z" fill="#6E6E6E"/>
<path d="M5.23382 5.09292L2.85305 2.71214L3.19313 2.37207L5.5739 4.75284L5.23382 5.09292Z" fill="#6E6E6E"/>
<path d="M13.9072 13.7663L16.2879 16.147L16.628 15.807L14.2473 13.4262L13.9072 13.7663Z" fill="#6E6E6E"/>
<path d="M2.95255 16.147L2.61248 15.807L4.99325 13.4262L5.33333 13.7663L2.95255 16.147Z" fill="#6E6E6E"/>
<path d="M13.6666 4.75284L14.0067 5.09292L16.3875 2.71214L16.0474 2.37207L13.6666 4.75284Z" fill="#6E6E6E"/>
</svg>
