<svg width="16" height="15" viewBox="0 0 16 15" fill="none" xmlns="http://www.w3.org/2000/svg">
<path fill-rule="evenodd" clip-rule="evenodd" d="M0.390223 8.6712C0.390223 5.90196 5.00447 1.29367 5.85364 0.469126C6.70281 1.29367 11.3171 5.90196 11.3171 8.6712C11.3171 11.714 8.86613 14.1892 5.85364 14.1892C2.84115 14.1892 0.390223 11.714 0.390223 8.6712ZM0 8.6712C0 11.9311 2.62595 14.5833 5.85366 14.5833C9.08137 14.5833 11.7073 11.9311 11.7073 8.6712C11.7073 5.46585 6.2201 0.27245 5.98654 0.0529134C5.91161 -0.0176378 5.79571 -0.0176378 5.72078 0.0529134C5.48722 0.27245 0 5.46585 0 8.6712ZM9.60453 14.5583C9.78424 14.5749 9.96668 14.5833 10.1464 14.5833C13.3741 14.5833 16 11.9312 16 8.67122C16 5.46587 10.5128 0.27247 10.2793 0.0529331C10.2043 -0.0176181 10.0884 -0.0176181 10.0135 0.0529331L10.013 0.0534345C9.99136 0.0738353 9.36564 0.66443 8.54834 1.54574C8.47458 1.62516 8.47868 1.74991 8.55731 1.8242C8.63575 1.8985 8.75926 1.89436 8.83321 1.81514C9.42873 1.17288 9.92063 0.6875 10.1462 0.469146C10.995 1.2931 15.6098 5.90179 15.6098 8.67122C15.6098 11.7138 13.1589 14.1892 10.1464 14.1892C9.97838 14.1892 9.80804 14.1813 9.64024 14.1657C9.53214 14.1559 9.4379 14.2357 9.42814 14.3441C9.41819 14.4525 9.49721 14.5483 9.60453 14.5583Z" fill="#6E6E6E"/>
</svg>
