<svg width="162" height="20" viewBox="0 0 162 20" fill="none" xmlns="http://www.w3.org/2000/svg">
<title>Logo Green Thumb</title>
<g id="logo">
<g id="Group">
<mask id="mask0_0_352" style="mask-type:alpha" maskUnits="userSpaceOnUse" x="0" y="3" width="12" height="17">
<path id="Clip 2" fill-rule="evenodd" clip-rule="evenodd" d="M0 3.63666H11.1133V19.0209H0V3.63666Z" fill="white"/>
</mask>
<g mask="url(#mask0_0_352)">
<path id="letter-g" fill-rule="evenodd" clip-rule="evenodd" d="M5.91386 5.96377C7.02841 5.96377 7.99674 6.54632 8.52097 7.07132V10.9664C7.99674 11.4735 7.02841 12.0351 5.91386 12.0351C3.98263 12.0351 2.63319 10.7945 2.63319 9.01966C2.63319 7.22066 3.98263 5.96377 5.91386 5.96377V5.96377ZM8.52097 4.6221C7.86452 4.11577 6.84641 3.63666 5.34219 3.63666C2.24663 3.63666 -0.000366211 5.90077 -0.000366211 9.01966C-0.000366211 12.0654 2.29641 14.3622 5.34219 14.3622C6.53997 14.3622 7.64986 14.0153 8.52097 13.376V14.0262C8.52097 16.4155 6.55474 16.6738 5.71008 16.6738C3.96863 16.6738 2.68219 15.8555 2.25908 15.5864L1.9853 15.4122L1.39263 17.807L1.71619 17.975C2.41152 18.3405 3.70497 19.0211 5.71008 19.0211C9.04208 19.0211 11.1133 16.9429 11.1133 13.5969V3.82099H8.52097V4.6221Z" fill="white"/>
</g>
</g>
<path id="letter-r" fill-rule="evenodd" clip-rule="evenodd" d="M21.7675 3.6369C20.5845 3.6369 19.7173 4.09735 19.0779 5.07735C18.7513 4.12146 18.0085 3.6369 16.8636 3.6369C15.9132 3.6369 14.9199 3.93868 14.6221 4.20857L14.5365 4.28635L14.7216 6.43379L15.0444 6.23546C15.2793 6.09157 15.6876 5.92279 16.0664 5.92279C16.4615 5.92279 16.6909 6.08224 16.6909 6.89501V14.9753H19.2833L19.2786 8.6979C19.6333 6.9269 20.3465 6.0659 21.4603 6.0659C22.3197 6.0659 22.9482 6.34124 23.1239 6.61268L23.4335 7.09101L23.9554 4.56324L23.9079 4.48468C23.6497 4.06235 22.8883 3.6369 21.7675 3.6369" fill="white"/>
<path id="letter-e" fill-rule="evenodd" clip-rule="evenodd" d="M29.1055 8.2139C29.3428 6.96401 30.3461 5.78023 32.1661 5.78023C34.0273 5.78023 34.6908 6.8629 34.6908 7.87557C34.6908 7.97046 34.6845 8.08868 34.6736 8.2139H29.1055ZM36.9658 10.1739C37.0956 9.76168 37.2014 8.88668 37.2014 8.22323C37.2014 5.95679 35.8893 3.53479 32.2065 3.53479C28.8271 3.53479 26.3748 6.01357 26.3748 9.42879C26.3748 13.0805 28.6233 15.2613 32.3909 15.2613C34.1556 15.2613 35.7828 14.7278 36.972 13.7579L37.1229 13.635L36.062 11.696L35.8465 11.857C35.39 12.2 34.1455 12.9957 32.4523 12.9957C30.5149 12.9957 29.3474 12.0779 29.062 10.3365H36.9144L36.9658 10.1739Z" fill="white"/>
<path id="letter-e-02" fill-rule="evenodd" clip-rule="evenodd" d="M43.2221 8.2139C43.4593 6.96401 44.4627 5.78023 46.2827 5.78023C48.1439 5.78023 48.8073 6.8629 48.8073 7.87557C48.8073 7.97046 48.8011 8.08868 48.7902 8.2139H43.2221ZM51.0823 10.1739C51.2122 9.76168 51.318 8.88668 51.318 8.22323C51.318 5.95679 50.0059 3.53479 46.3231 3.53479C42.9437 3.53479 40.4913 6.01357 40.4913 9.42879C40.4913 13.0805 42.7399 15.2613 46.5074 15.2613C48.2722 15.2613 49.8993 14.7278 51.0886 13.7579L51.2394 13.635L50.1786 11.696L49.9631 11.857C49.5066 12.2 48.2621 12.9957 46.5689 12.9957C44.6314 12.9957 43.464 12.0779 43.1786 10.3365H51.031L51.0823 10.1739Z" fill="white"/>
<path id="letter-n" fill-rule="evenodd" clip-rule="evenodd" d="M67.2858 12.56C66.9288 12.7778 66.5827 12.8937 66.284 12.8937C65.9589 12.8937 65.6594 12.7755 65.6594 11.9215V8.59104C65.6594 5.48926 64.0666 3.6366 61.4003 3.6366C60.005 3.6366 58.8057 4.12582 57.9556 5.02726V3.82093H55.3632V14.975H57.9556V8.17804C58.3024 7.12104 59.2684 6.0656 60.6646 6.0656C62.1913 6.0656 63.0671 7.10549 63.0671 8.91771V12.3913C63.0671 14.2416 63.8814 15.1796 65.4868 15.1796C66.3843 15.1796 67.1987 14.9113 67.6622 14.6608L67.796 14.5877L67.6086 12.3633L67.2858 12.56Z" fill="white"/>
<path id="letter-t" fill-rule="evenodd" clip-rule="evenodd" d="M84.8385 12.0796C84.3252 12.4521 83.4074 12.8527 82.6055 12.8527C81.6076 12.8527 81.1231 12.2608 81.1231 11.0428V5.96391H85.292V3.82113H81.1231V1.10358H78.796L78.551 3.82113H76.528V5.96391H78.5307V11.4511C78.5307 13.8202 79.7853 15.179 81.9724 15.179C83.7146 15.179 85.012 14.605 85.7936 14.1228L85.9632 14.0186L85.0773 11.9069L84.8385 12.0796Z" fill="white"/>
<path id="letter-h" fill-rule="evenodd" clip-rule="evenodd" d="M101.33 12.5544C100.893 12.7955 100.601 12.8935 100.319 12.8935C99.9948 12.8935 99.6946 12.776 99.6946 11.922V8.5908C99.6946 5.48902 98.1024 3.63713 95.4354 3.63713C94.0253 3.63713 92.8268 4.11702 91.9914 5.00291V0.000244141H89.3991V14.9748H91.9914V8.17858C92.3376 7.1208 93.3043 6.06613 94.7004 6.06613C96.2264 6.06613 97.1022 7.10524 97.1022 8.91747V12.3918C97.1022 14.2414 97.9166 15.1794 99.5219 15.1794C100.449 15.1794 101.255 14.9102 101.701 14.659L101.832 14.5851L101.646 12.3809L101.33 12.5544Z" fill="white"/>
<path id="letter-u" fill-rule="evenodd" clip-rule="evenodd" d="M116.832 12.5574C116.429 12.7899 116.113 12.8933 115.805 12.8933C115.512 12.8933 115.201 12.8179 115.201 11.9219V3.82135H112.608V11.0321C112.388 11.4902 111.627 12.751 109.92 12.751C108.236 12.751 107.518 11.9095 107.518 9.93935V3.82135H104.925V10.2458C104.925 13.381 106.471 15.1792 109.164 15.1792C110.71 15.1792 111.963 14.7079 112.822 13.8088C113.168 14.7188 113.909 15.1792 115.028 15.1792C115.78 15.1792 116.642 14.9755 117.224 14.6605L117.36 14.5873L117.147 12.3746L116.832 12.5574Z" fill="white"/>
<path id="letter-m" fill-rule="evenodd" clip-rule="evenodd" d="M139.918 12.5574C139.533 12.7806 139.188 12.8934 138.891 12.8934C138.593 12.8934 138.287 12.7783 138.287 11.9219V8.59071C138.287 5.44304 136.78 3.63704 134.151 3.63704C132.513 3.63704 131.136 4.33315 130.305 5.5636C129.668 4.2546 128.488 3.61682 126.713 3.61682C125.365 3.61682 124.201 4.09749 123.371 4.9826V3.82138H120.778V14.9747H123.371V8.09682C123.541 7.57727 124.191 6.06604 125.957 6.06604C127.858 6.06604 128.257 7.60604 128.257 8.89715V14.9747H130.849V8.07427C131.152 7.0966 131.969 6.06604 133.374 6.06604C135.393 6.06604 135.695 7.8526 135.695 8.91738V12.3917C135.695 14.2413 136.509 15.1793 138.115 15.1793C138.867 15.1793 139.772 14.9654 140.314 14.6589L140.446 14.5835L140.233 12.3746L139.918 12.5574Z" fill="white"/>
<path id="letter-b" fill-rule="evenodd" clip-rule="evenodd" d="M152.18 9.38778C152.18 11.4606 150.862 12.8528 148.899 12.8528C147.77 12.8528 146.796 12.2912 146.272 11.7841V7.07311C146.834 6.52478 147.797 5.964 148.899 5.964C150.862 5.964 152.18 7.33989 152.18 9.38778M149.471 3.63689C148.247 3.63689 147.131 3.99311 146.272 4.64878V0H143.68V14.9753H146.272V14.1314C146.934 14.6704 147.959 15.1791 149.471 15.1791C152.628 15.1791 154.834 12.7976 154.834 9.38778C154.834 6.00133 152.628 3.63689 149.471 3.63689" fill="white"/>
<g id="letter-point">
<mask id="mask1_0_352" style="mask-type:alpha" maskUnits="userSpaceOnUse" x="158" y="11" width="4" height="5">
<path id="Clip 23" fill-rule="evenodd" clip-rule="evenodd" d="M158.43 11.8924H161.778V15.2197H158.43V11.8924Z" fill="white"/>
</mask>
<g mask="url(#mask1_0_352)">
<path id="Fill 22" fill-rule="evenodd" clip-rule="evenodd" d="M160.093 11.8924C159.051 11.8924 158.43 12.5146 158.43 13.5568C158.43 14.6138 159.036 15.2197 160.093 15.2197C161.164 15.2197 161.778 14.6138 161.778 13.5568C161.778 12.5146 161.148 11.8924 160.093 11.8924" fill="white"/>
</g>
</g>
</g>
</svg>
