<svg width="106" height="206" viewBox="0 0 106 206" fill="none" xmlns="http://www.w3.org/2000/svg">
<path fill-rule="evenodd" clip-rule="evenodd" d="M40.9606 122.593C37.7736 119.525 36.1827 115.789 36.1827 111.386C36.1827 106.986 37.7459 103.307 40.8732 100.353C44.0014 97.3999 47.9973 95.9231 52.8617 95.9231C57.727 95.9231 61.7229 97.3999 64.8502 100.353C67.9783 103.307 69.5416 106.986 69.5416 111.386C69.5416 115.789 67.9481 119.525 64.7637 122.593C61.5767 125.663 57.6102 127.196 52.8617 127.196C48.1115 127.196 44.145 125.663 40.9606 122.593M43.741 68.6441C46.4609 64.7087 50.4299 60.3651 55.6421 55.6141C59.4649 52.139 62.2714 49.2158 64.069 46.8394C65.8632 44.4664 66.762 41.7734 66.762 38.7603C66.762 34.4772 65.0518 31.0877 61.6363 28.5963C58.2184 26.1074 53.6715 24.8608 47.9973 24.8608C42.5515 24.8608 37.7165 25.9898 33.4896 28.2494C29.2602 30.5073 25.6986 33.6649 22.804 37.7179L1.78046 25.3816C6.64574 17.9703 13.2187 12.2373 21.5011 8.18095C29.781 4.12795 39.5981 2.10019 50.9515 2.10019C64.2697 2.10019 74.9554 4.94023 83.0076 10.6136C91.0565 16.2903 95.0826 24.1653 95.0826 34.2428C95.0826 38.9947 94.3006 43.1636 92.7373 46.7529C91.1733 50.3439 89.2623 53.3847 87.0035 55.8745C84.7447 58.3667 81.8182 61.2337 78.2289 64.4752C73.9423 68.2972 70.815 71.5111 68.8469 74.1176C66.8763 76.7241 65.8935 79.8808 65.8935 83.5869H39.6577C39.6577 77.5658 41.0177 72.5837 43.741 68.6441" fill="#F6F6F6"/>
<mask id="mask0_0_87" style="mask-type:alpha" maskUnits="userSpaceOnUse" x="0" y="0" width="97" height="123">
<path fill-rule="evenodd" clip-rule="evenodd" d="M0.000244141 0.840027H96.3424V122.983H0.000244141V0.840027Z" fill="white"/>
</mask>
<g mask="url(#mask0_0_87)">
<path fill-rule="evenodd" clip-rule="evenodd" d="M40.9385 82.3273H64.6702C64.8768 78.8833 65.9411 75.871 67.8412 73.3577C69.8488 70.7 73.0618 67.3946 77.3903 63.5339C80.9351 60.3327 83.8574 57.4691 86.07 55.0281C88.2246 52.6526 90.0793 49.6991 91.5812 46.2493C93.068 42.8372 93.8224 38.7976 93.8224 34.2431C93.8224 24.5126 90.0466 17.1206 82.2808 11.6438C74.4805 6.14681 63.9394 3.35969 50.9504 3.35969C39.8465 3.35969 30.1235 5.36225 22.0553 9.31277C14.4306 13.0457 8.22048 18.3117 3.57612 24.9754L22.4644 36.0575C25.338 32.2994 28.8425 29.3023 32.8955 27.1376C37.2862 24.7906 42.3673 23.6012 47.997 23.6012C53.9156 23.6012 58.754 24.9393 62.3778 27.5777C66.1225 30.3103 68.0218 34.0726 68.0218 38.7607C68.0218 42.0383 67.0297 45.0128 65.0734 47.6C63.2354 50.0293 60.3467 53.039 56.4894 56.546C51.3679 61.2147 47.4266 65.5264 44.7764 69.361C42.406 72.7907 41.1166 77.1478 40.9385 82.3273V82.3273ZM67.1532 84.8473H38.3975V83.5872C38.3975 77.3301 39.8465 72.0616 42.7042 67.928C45.4619 63.9371 49.53 59.4801 54.7926 54.6829C58.5373 51.2792 61.3194 48.3845 63.0632 46.0796C64.7038 43.9099 65.5018 41.5159 65.5018 38.7607C65.5018 34.8681 63.994 31.876 60.8935 29.6139C57.7108 27.2963 53.3713 26.1212 47.997 26.1212C42.7856 26.1212 38.1043 27.2107 34.0832 29.3602C30.047 31.5157 26.5972 34.5733 23.8294 38.4499L23.1599 39.3873L0.000244141 25.7986L0.726844 24.6907C5.6946 17.1223 12.4978 11.1877 20.9465 7.04897C29.3641 2.92877 39.4584 0.839691 50.9504 0.839691C64.4694 0.839691 75.4994 3.78221 83.7331 9.58409C92.0995 15.4843 96.3424 23.7809 96.3424 34.2431C96.3424 39.1462 95.5175 43.5243 93.8921 47.2564C92.2801 50.9575 90.2759 54.1419 87.9365 56.7215C85.6685 59.2239 82.6865 62.1471 79.0728 65.4097C74.861 69.1661 71.7606 72.3497 69.8513 74.8764C68.0612 77.2452 67.1532 80.176 67.1532 83.5872V84.8473ZM52.8614 91.7101C48.2885 91.7101 44.6496 93.0465 41.7382 95.7967C38.8477 98.5267 37.4424 101.835 37.4424 105.913C37.4424 109.999 38.8788 113.368 41.8339 116.212L41.8348 116.213C44.8016 119.073 48.4086 120.463 52.8614 120.463C57.3126 120.463 60.9204 119.073 63.8898 116.213C66.8449 113.365 68.2813 109.996 68.2813 105.913C68.2813 101.835 66.876 98.5267 63.9856 95.7967C61.0741 93.0465 57.4352 91.7101 52.8614 91.7101V91.7101ZM52.8614 122.983C47.7954 122.983 43.4971 121.317 40.0859 118.027C36.6595 114.729 34.9224 110.653 34.9224 105.913C34.9224 101.171 36.6335 97.1507 40.0086 93.9646C43.3619 90.7961 47.687 89.1901 52.8614 89.1901C58.0367 89.1901 62.361 90.7961 65.7151 93.9646C69.0902 97.1507 70.8013 101.172 70.8013 105.913C70.8013 110.65 69.0642 114.726 65.6378 118.027C62.2241 121.317 57.9258 122.983 52.8614 122.983V122.983Z" fill="#DBDBDB"/>
</g>
<path fill-rule="evenodd" clip-rule="evenodd" d="M103.438 148.274C103.438 136.679 99.4829 126.009 92.8478 117.537H13.6862C7.39037 125.888 3.65741 137.01 3.65741 148.274C3.65741 168.373 15.5493 185.685 32.6761 193.587H31.8822V202.855H75.212V193.587H74.419C91.5458 185.685 103.438 168.373 103.438 148.274" fill="#F6F6F6"/>
<mask id="mask1_0_87" style="mask-type:alpha" maskUnits="userSpaceOnUse" x="2" y="116" width="103" height="89">
<path fill-rule="evenodd" clip-rule="evenodd" d="M2.39691 116.277H104.698V204.115H2.39691V116.277Z" fill="white"/>
</mask>
<g mask="url(#mask1_0_87)">
<path fill-rule="evenodd" clip-rule="evenodd" d="M33.1426 201.595H73.9523V194.847H68.6805L73.891 192.443C91.0749 184.515 102.178 167.177 102.178 148.273C102.178 137.5 98.7399 127.322 92.229 118.797H14.3199C8.33739 126.975 4.91691 137.679 4.91691 148.273C4.91691 167.177 16.02 184.515 33.2039 192.443L38.4144 194.847H33.1426V201.595ZM76.4723 204.115H30.6226V193.996C13.4211 185.354 2.39691 167.592 2.39691 148.273C2.39691 136.926 6.14499 125.446 12.6802 116.779L13.0582 116.277H93.4613L93.8402 116.76C100.943 125.83 104.698 136.727 104.698 148.273C104.698 167.592 93.6738 185.354 76.4723 193.996V204.115Z" fill="#DBDBDB"/>
</g>
<mask id="mask2_0_87" style="mask-type:alpha" maskUnits="userSpaceOnUse" x="1" y="2" width="105" height="204">
<path fill-rule="evenodd" clip-rule="evenodd" d="M1 205.275H105.698V2.00003H1V205.275Z" fill="white"/>
</mask>
<g mask="url(#mask2_0_87)">
<path fill-rule="evenodd" clip-rule="evenodd" d="M3.41211 138.927H103.678V136.407H3.41211V138.927Z" fill="#DBDBDB"/>
<path fill-rule="evenodd" clip-rule="evenodd" d="M3.41211 152.348H103.678V149.828H3.41211V152.348Z" fill="#DBDBDB"/>
</g>
</svg>
