<svg width="106" height="232" viewBox="0 0 106 232" fill="none" xmlns="http://www.w3.org/2000/svg"><title>No results.</title><path fill-rule="evenodd" clip-rule="evenodd" d="M40.9606 151.593C37.7736 148.525 36.1827 144.789 36.1827 140.386C36.1827 135.986 37.7459 132.307 40.8732 129.353C44.0014 126.4 47.9973 124.923 52.8617 124.923C57.727 124.923 61.7229 126.4 64.8502 129.353C67.9783 132.307 69.5416 135.986 69.5416 140.386C69.5416 144.789 67.9481 148.525 64.7637 151.593C61.5767 154.663 57.6102 156.196 52.8617 156.196C48.1115 156.196 44.145 154.663 40.9606 151.593ZM43.741 97.6441C46.4609 93.7087 50.4299 89.3651 55.6421 84.614C59.4649 81.139 62.2714 78.2158 64.069 75.8394C65.8632 73.4664 66.762 70.7734 66.762 67.7603C66.762 63.4771 65.0518 60.0877 61.6363 57.5963C58.2184 55.1074 53.6715 53.8608 47.9973 53.8608C42.5515 53.8608 37.7165 54.9898 33.4896 57.2494C29.2602 59.5073 25.6986 62.6648 22.804 66.7178L1.78046 54.3816C6.64574 46.9703 13.2187 41.2373 21.5011 37.1809C29.781 33.1279 39.5981 31.1002 50.9515 31.1002C64.2697 31.1002 74.9554 33.9402 83.0076 39.6136C91.0565 45.2903 95.0826 53.1653 95.0826 63.2428C95.0826 67.9946 94.3006 72.1636 92.7373 75.7529C91.1733 79.3439 89.2623 82.3847 87.0035 84.8744C84.7447 87.3667 81.8182 90.2336 78.2289 93.4752C73.9423 97.2972 70.815 100.511 68.8469 103.118C66.8763 105.724 65.8935 108.881 65.8935 112.587H39.6577C39.6577 106.566 41.0177 101.584 43.741 97.6441Z" fill="#F6F6F6"/>
<mask id="mask0_0_87" style="mask-type:alpha" maskUnits="userSpaceOnUse" x="0" y="29" width="97" height="123">
<path fill-rule="evenodd" clip-rule="evenodd" d="M0.000244141 29.84H96.3424V151.983H0.000244141V29.84Z" fill="white"/>
</mask>
<g mask="url(#mask0_0_87)">
<path fill-rule="evenodd" clip-rule="evenodd" d="M40.9385 111.327H64.6702C64.8768 107.883 65.9411 104.871 67.8412 102.358C69.8488 99.6999 73.0618 96.3945 77.3903 92.5339C80.9351 89.3327 83.8574 86.4691 86.07 84.0281C88.2246 81.6525 90.0793 78.6991 91.5812 75.2492C93.068 71.8371 93.8224 67.7976 93.8224 63.2431C93.8224 53.5125 90.0466 46.1205 82.2808 40.6437C74.4805 35.1468 63.9394 32.3597 50.9504 32.3597C39.8465 32.3597 30.1235 34.3622 22.0553 38.3127C14.4306 42.0457 8.22048 47.3117 3.57612 53.9754L22.4644 65.0575C25.338 61.2993 28.8425 58.3022 32.8955 56.1375C37.2862 53.7906 42.3673 52.6011 47.997 52.6011C53.9156 52.6011 58.754 53.9393 62.3778 56.5777C66.1225 59.3102 68.0218 63.0726 68.0218 67.7606C68.0218 71.0383 67.0297 74.0127 65.0734 76.5999C63.2354 79.0292 60.3467 82.0389 56.4894 85.5459C51.3679 90.2147 47.4266 94.5264 44.7764 98.361C42.406 101.791 41.1166 106.148 40.9385 111.327ZM67.1532 113.847H38.3975V112.587C38.3975 106.33 39.8465 101.062 42.7042 96.9279C45.4619 92.9371 49.53 88.4801 54.7926 83.6828C58.5373 80.2791 61.3194 77.3845 63.0632 75.0795C64.7038 72.9098 65.5018 70.5158 65.5018 67.7606C65.5018 63.8681 63.994 60.876 60.8935 58.6139C57.7108 56.2963 53.3713 55.1211 47.997 55.1211C42.7856 55.1211 38.1043 56.2106 34.0832 58.3602C30.047 60.5156 26.5972 63.5732 23.8294 67.4498L23.1599 68.3873L0.000244141 54.7986L0.726844 53.6906C5.6946 46.1222 12.4978 40.1876 20.9465 36.0489C29.3641 31.9287 39.4584 29.8397 50.9504 29.8397C64.4694 29.8397 75.4994 32.7822 83.7331 38.5841C92.0995 44.4842 96.3424 52.7809 96.3424 63.2431C96.3424 68.1462 95.5175 72.5243 93.8921 76.2564C92.2801 79.9574 90.2759 83.1419 87.9365 85.7215C85.6685 88.2239 82.6865 91.1471 79.0728 94.4096C74.861 98.1661 71.7606 101.35 69.8513 103.876C68.0612 106.245 67.1532 109.176 67.1532 112.587V113.847ZM52.8614 120.71C48.2885 120.71 44.6496 122.046 41.7382 124.797C38.8477 127.527 37.4424 130.835 37.4424 134.913C37.4424 138.999 38.8788 142.368 41.8339 145.212L41.8348 145.213C44.8016 148.073 48.4086 149.463 52.8614 149.463C57.3126 149.463 60.9204 148.073 63.8898 145.213C66.8449 142.365 68.2813 138.996 68.2813 134.913C68.2813 130.835 66.876 127.527 63.9856 124.797C61.0741 122.046 57.4352 120.71 52.8614 120.71ZM52.8614 151.983C47.7954 151.983 43.4971 150.317 40.0859 147.027C36.6595 143.729 34.9224 139.653 34.9224 134.913C34.9224 130.171 36.6335 126.151 40.0086 122.965C43.3619 119.796 47.687 118.19 52.8614 118.19C58.0367 118.19 62.361 119.796 65.7151 122.965C69.0902 126.151 70.8013 130.172 70.8013 134.913C70.8013 139.65 69.0642 143.726 65.6378 147.027C62.2241 150.317 57.9258 151.983 52.8614 151.983Z" fill="#DBDBDB"/>
</g>
<path fill-rule="evenodd" clip-rule="evenodd" d="M103.438 177.274C103.438 165.679 99.4829 155.009 92.8478 146.537H13.6862C7.39037 154.888 3.65741 166.01 3.65741 177.274C3.65741 197.373 15.5493 214.685 32.6761 222.587H31.8822V231.855H75.212V222.587H74.419C91.5458 214.685 103.438 197.373 103.438 177.274Z" fill="#F6F6F6"/>
<mask id="mask1_0_87" style="mask-type:alpha" maskUnits="userSpaceOnUse" x="2" y="114" width="103" height="89">
<path fill-rule="evenodd" clip-rule="evenodd" d="M2.39691 114.277H104.698V202.115H2.39691V114.277Z" fill="white"/>
</mask>
<g mask="url(#mask1_0_87)">
<path fill-rule="evenodd" clip-rule="evenodd" d="M33.1426 199.595H73.9523V192.847H68.6805L73.891 190.443C91.0749 182.515 102.178 165.177 102.178 146.273C102.178 135.5 98.7399 125.322 92.229 116.797H14.3199C8.33739 124.975 4.91691 135.679 4.91691 146.273C4.91691 165.177 16.02 182.515 33.2039 190.443L38.4144 192.847H33.1426V199.595ZM76.4723 202.115H30.6226V191.996C13.4211 183.354 2.39691 165.592 2.39691 146.273C2.39691 134.926 6.14499 123.446 12.6802 114.779L13.0582 114.277H93.4613L93.8402 114.76C100.943 123.83 104.698 134.727 104.698 146.273C104.698 165.592 93.6738 183.354 76.4723 191.996V202.115Z" fill="#DBDBDB"/>
</g>
<mask id="mask2_0_87" style="mask-type:alpha" maskUnits="userSpaceOnUse" x="1" y="0" width="105" height="204">
<path fill-rule="evenodd" clip-rule="evenodd" d="M1 203.275H105.698V0H1V203.275Z" fill="white"/>
</mask>
<g mask="url(#mask2_0_87)">
<path fill-rule="evenodd" clip-rule="evenodd" d="M3.41211 136.927H103.678V134.407H3.41211V136.927Z" fill="#DBDBDB"/>
<path fill-rule="evenodd" clip-rule="evenodd" d="M3.41211 150.348H103.678V147.828H3.41211V150.348Z" fill="#DBDBDB"/>
</g>
<path fill-rule="evenodd" clip-rule="evenodd" d="M90.2314 51.4785C90.2314 51.4785 91.7636 62.3196 84.858 69.9476C77.9532 77.5756 66.6652 77.5126 66.6652 77.5126L66.514 77.3757C66.514 77.3757 65.3296 66.1491 72.2353 58.5211C79.1401 50.893 90.0802 51.3416 90.0802 51.3416L90.2314 51.4785Z" fill="#F6F6F6"/>
<path fill-rule="evenodd" clip-rule="evenodd" d="M89.0687 52.613C86.3445 52.7222 78.4317 53.553 73.1691 59.3675C67.9191 65.1668 67.6327 73.34 67.7108 76.2044C70.5693 75.9978 78.6737 74.9024 83.9237 69.1022C89.2031 63.2701 89.2358 55.3313 89.0687 52.613ZM66.6869 78.7723H66.6575L66.1761 78.7698L65.3109 77.9869L65.2605 77.5073C65.2093 77.0259 64.1005 65.6297 71.301 57.6757C78.5199 49.7016 89.6609 50.0611 90.1321 50.0829L90.5874 50.1014L91.4148 50.8507L91.4795 51.3018C91.545 51.7688 93.01 62.819 85.7918 70.794C78.7006 78.627 67.4874 78.7723 66.6869 78.7723Z" fill="#DBDBDB"/>
<path fill-rule="evenodd" clip-rule="evenodd" d="M66.6651 77.5124L83.3357 59.0971L66.6651 77.5124Z" fill="#F6F6F6"/>
<path fill-rule="evenodd" clip-rule="evenodd" d="M66.6643 78.7724C66.3628 78.7724 66.0604 78.6649 65.8193 78.4465C65.3035 77.9794 65.2641 77.1823 65.7311 76.6665L82.4009 58.2512C82.8679 57.7363 83.6651 57.6951 84.1809 58.163C84.6966 58.63 84.7361 59.4263 84.2691 59.9421L67.5984 78.3583C67.3498 78.6321 67.0079 78.7724 66.6643 78.7724Z" fill="#DBDBDB"/>
<path fill-rule="evenodd" clip-rule="evenodd" d="M73.3232 71.5601C73.2888 71.5601 73.2543 71.5593 73.2199 71.5559C72.5269 71.4997 72.0103 70.8923 72.0657 70.1985L72.6873 62.536C72.7428 61.8422 73.3476 61.3214 74.0448 61.3819C74.7386 61.4381 75.2552 62.0455 75.1989 62.7393L74.5782 70.4018C74.5244 71.0612 73.9734 71.5601 73.3232 71.5601Z" fill="#DBDBDB"/>
<path fill-rule="evenodd" clip-rule="evenodd" d="M77.3406 67.6354C76.6947 67.6354 76.1445 67.1415 76.0865 66.4863C76.026 65.7933 76.5376 65.1818 77.2314 65.1204L83.5877 64.5585C84.2774 64.5022 84.8922 65.0104 84.9536 65.7034C85.014 66.3964 84.5016 67.0079 83.8086 67.0692L77.4524 67.6304C77.4146 67.6337 77.3776 67.6354 77.3406 67.6354Z" fill="#DBDBDB"/>
<path fill-rule="evenodd" clip-rule="evenodd" d="M42.3547 31.9112C42.3547 31.9112 50.4515 39.2814 50.0021 49.5613C49.5527 59.8404 40.8201 66.9938 40.8201 66.9938L40.6168 66.9854C40.6168 66.9854 32.5419 59.097 32.9921 48.8171C33.4415 38.538 42.1506 31.902 42.1506 31.902L42.3547 31.9112Z" fill="#F6F6F6"/>
<path fill-rule="evenodd" clip-rule="evenodd" d="M42.1816 33.528C40.1513 35.3517 34.593 41.0402 34.2503 48.8723C33.9076 56.7137 38.9014 63.1716 40.7897 65.3204C42.8586 63.3388 48.401 57.3236 48.7428 49.5057C49.0856 41.6735 44.0439 35.5222 42.1816 33.528ZM41.2458 68.2738L40.0799 68.2226L39.7355 67.8857C39.3894 67.548 31.2641 59.4807 31.7328 48.7623C32.2032 38.017 41.0123 31.1853 41.387 30.8997L41.7498 30.6233L42.8654 30.6729L43.2022 30.9795C43.5508 31.2962 51.7307 38.8704 51.2603 49.6157C50.7916 60.335 41.9926 67.6623 41.6188 67.968L41.2458 68.2738Z" fill="#DBDBDB"/>
<path fill-rule="evenodd" clip-rule="evenodd" d="M40.8203 66.9939L41.9056 42.1778L40.8203 66.9939Z" fill="#F6F6F6"/>
<path fill-rule="evenodd" clip-rule="evenodd" d="M40.8211 68.2539C40.8027 68.2539 40.7842 68.2539 40.7657 68.2531C40.0702 68.222 39.5309 67.634 39.5611 66.9393L40.6464 42.1223C40.6775 41.4277 41.2571 40.8968 41.9602 40.9186C42.6557 40.9489 43.195 41.5369 43.1647 42.2324L42.0795 67.0485C42.0492 67.7255 41.4915 68.2539 40.8211 68.2539Z" fill="#DBDBDB"/>
<path fill-rule="evenodd" clip-rule="evenodd" d="M41.3453 58.4528C40.948 58.4528 40.5574 58.2655 40.3121 57.916L35.9013 51.6202C35.5023 51.0499 35.64 50.2645 36.2104 49.8646C36.7816 49.4648 37.5653 49.6042 37.9651 50.1737L42.376 56.4695C42.775 57.0399 42.6372 57.8253 42.0669 58.2251C41.8468 58.3789 41.5948 58.4528 41.3453 58.4528Z" fill="#DBDBDB"/>
<path fill-rule="evenodd" clip-rule="evenodd" d="M41.9351 52.8661C41.61 52.8661 41.2858 52.7418 41.0397 52.4923C40.55 51.9975 40.5542 51.2004 41.0489 50.7107L45.5849 46.2217C46.0797 45.7328 46.8768 45.7362 47.3666 46.2318C47.8563 46.7257 47.8521 47.5237 47.3573 48.0134L42.8213 52.5015C42.576 52.7443 42.2552 52.8661 41.9351 52.8661Z" fill="#DBDBDB"/>
<path fill-rule="evenodd" clip-rule="evenodd" d="M60.32 8.15125C60.32 8.15125 67.2895 11.796 68.8502 19.0208C70.4118 26.2457 65.6481 32.8069 65.6481 32.8069L65.5053 32.838C65.5053 32.838 58.4569 28.8287 56.8962 21.6047C55.3346 14.3798 60.1764 8.18233 60.1764 8.18233L60.32 8.15125Z" fill="#F6F6F6"/>
<path fill-rule="evenodd" clip-rule="evenodd" d="M60.601 9.79722C59.4468 11.6351 57.0301 16.2593 58.128 21.338C59.2234 26.4065 63.3545 29.827 65.2143 31.1416C66.3634 29.1777 68.7145 24.3561 67.6192 19.2867C66.5221 14.2097 62.4129 10.9959 60.601 9.79722ZM65.2999 34.1707L64.8825 33.9329C64.5742 33.7582 57.3258 29.5574 55.6643 21.8705C53.9977 14.1577 58.9714 7.67874 59.1839 7.40658L59.4636 7.0479L60.4985 6.82278L60.9042 7.03446C61.21 7.1949 68.4155 11.0421 70.0829 18.755C71.7436 26.441 66.8766 33.2609 66.6683 33.5474L66.3852 33.938L65.2999 34.1707Z" fill="#DBDBDB"/>
<path fill-rule="evenodd" clip-rule="evenodd" d="M65.6484 32.807L60.8007 15.5551L65.6484 32.807Z" fill="#F6F6F6"/>
<path fill-rule="evenodd" clip-rule="evenodd" d="M65.6479 34.0678C65.0977 34.0678 64.592 33.704 64.4358 33.148L59.5881 15.896C59.4 15.2266 59.7906 14.5302 60.4601 14.3429C61.1304 14.1514 61.8268 14.5445 62.0141 15.2148L66.8617 32.4667C67.0499 33.1362 66.6593 33.8326 65.9898 34.0199C65.8755 34.0526 65.7605 34.0678 65.6479 34.0678Z" fill="#DBDBDB"/>
<path fill-rule="evenodd" clip-rule="evenodd" d="M64.2218 28.0361C64.0739 28.0361 63.9236 28.01 63.7774 27.9546C63.1264 27.7085 62.798 26.9819 63.0433 26.3309L64.7308 21.8604C64.9761 21.2102 65.7027 20.8793 66.3545 21.1271C67.0055 21.3723 67.334 22.0998 67.0887 22.7508L65.4011 27.2204C65.2105 27.7253 64.7308 28.0361 64.2218 28.0361Z" fill="#DBDBDB"/>
</svg>
