<svg xmlns="http://www.w3.org/2000/svg" viewBox="0 0 158 78.07"><title>Icon pick.</title><defs><style>.cls-1{fill:#15573f;}.cls-2{fill:#fd9872;}</style></defs><g id="plant"><g id="base-plant"><path class="cls-1" d="M146.8,67.49l-.77.77c-16.44-18.74-49.62-21.2-49.62-21.2V44.45S133,48.75,146.8,67.49Z" transform="translate(-3.71 -3.71)"/></g><path id="leaf-06" class="cls-1" d="M145.82,66.91s-.74,6.9.29,10.92a4.94,4.94,0,0,0,5.69,3.83c1.22-1.06.7-4.24.24-5.84a14.42,14.42,0,0,0-1.37-2.68,26.29,26.29,0,0,0-3-4Z" transform="translate(-3.71 -3.71)"/><path id="leaf-05" class="cls-1" d="M146.09,67.81s5.94-2.88,10.16-3.14A5,5,0,0,1,161.69,69c-.66,1.53-3.9,2-5.6,2.09a14.91,14.91,0,0,1-3-.5A27.15,27.15,0,0,1,148.22,69Z" transform="translate(-3.71 -3.71)"/><path id="leaf-04" class="cls-1" d="M128.44,54.6s6,6.34,8.1,11.13c2.24,5-2.26,8.18-2.81,8.14-2.1-.13-4.08-3.69-4.88-5.62a18.14,18.14,0,0,1-.72-3.72,32.55,32.55,0,0,1-.13-6.32Z" transform="translate(-3.71 -3.71)"/><path id="leaf-03" class="cls-1" d="M130,55.34s7.12-6.2,12.64-8.08c5.81-2,8.9,3.22,8.82,3.82-.33,2.29-4.47,4.11-6.7,4.82a21.19,21.19,0,0,1-4.2.43,37,37,0,0,1-7-.44Z" transform="translate(-3.71 -3.71)"/><path id="leaf-02" class="cls-1" d="M110.11,48.16S119.76,38,127,34.82c7.63-3.36,13,2.3,13,3,0,2.77-5.36,5.66-8.3,6.88-2,.85-9.23,1.79-11.43,2Z" transform="translate(-3.71 -3.71)"/><path id="leaf-01" class="cls-1" d="M108.3,47.79s8.78,7.76,11.83,14.53c3.2,7.11-1.79,12.26-2.44,12.27-2.51.06-5.25-4.92-6.42-7.66-.8-1.9-1.82-8.66-2-10.73Z" transform="translate(-3.71 -3.71)"/></g><g id="hand"><g id="base-hand"><polygon class="cls-2" points="0 29.64 0 58.41 57.23 59.64 68.94 59.21 71.99 42.88 74.26 29.64 0 29.64"/><polyline class="cls-2" points="57.23 59.64 77.27 50.51 57.59 29.64"/></g><g id="finger-05"><path class="cls-2" d="M72,62.94A34.6,34.6,0,0,1,77.54,64C94.3,71.09,101,57.2,102.83,52.12a3.58,3.58,0,0,0-.41-3.19h0A3.4,3.4,0,0,0,99,47.46h0a3.4,3.4,0,0,0-2.38,1.76c-1.47,2.78-3.93,8.61-9.72,7.93a9.82,9.82,0,0,1-5.54-2.56l-2.85-3.07c-3.88.88-8.26,4.29-8.63,8.25Z" transform="translate(-3.71 -3.71)"/></g><g id="finger-04"><path class="cls-2" d="M91,28.56l-8.73.37L61.88,31.84,68,40.06l12,14a11.67,11.67,0,0,1-2.58-9.12c0-.12,0-.24.05-.36a10.37,10.37,0,0,1,6.51-8.09,9.63,9.63,0,0,1,7.07.1A10.84,10.84,0,0,1,95.59,40l2.89,3.71A3.26,3.26,0,0,0,101.1,45l1.46,0a3.27,3.27,0,0,0,3.13-2.51h0a3.27,3.27,0,0,0-.91-3.11l-9.5-9.15A5.85,5.85,0,0,0,91,28.56" transform="translate(-3.71 -3.71)"/></g><g id="finger-01"><path class="cls-2" d="M71.29,4.25a3,3,0,0,1,.59,4.53h0a17.84,17.84,0,0,0-2.72,5.56L68.62,19a.2.2,0,0,0,.36.14L67.41,33.35H61.29l.33-17.08c.17-2.55,1.8-5.4,3.17-7.56L67,5.15a3,3,0,0,1,4.25-.9Z" transform="translate(-3.71 -3.71)"/></g><g id="finger-02"><path class="cls-2" d="M86.31,3.71a3.51,3.51,0,0,1,2.48,6.06L83,14.19a10.65,10.65,0,0,0-1.65,1.57l-4.47,5.49c0,.05-3.42,10-4.23,12.1H67l2-14.21c1.86-2.55,9.17-12.23,15-14.92a6,6,0,0,1,2.36-.51h0" transform="translate(-3.71 -3.71)"/></g><g id="finger-03"><path class="cls-2" d="M80.07,30.2c-.17,0,1.09-1.33,1.21-1.44l6.92-6.07a15,15,0,0,1,5.12-3.1,81.78,81.78,0,0,0,10.4-4.39c2.56-1.39,3.17-2.91,3.25-3.22.7-2.61-2.26-4.27-4.26-3.82a8.13,8.13,0,0,0-1.07.33L88,13.82a15.22,15.22,0,0,0-3.39,1.83l-7.89,5.47L72.64,33.35H78Z" transform="translate(-3.71 -3.71)"/></g></g></svg>