<svg xmlns="http://www.w3.org/2000/svg" viewBox="0 0 126.65 115.28"><defs><style>.cls-1{fill:#fcde3a;stroke:#eda622;}.cls-1,.cls-2,.cls-3{stroke-linecap:round;}.cls-2,.cls-3{fill:none;stroke:#f4f4f4;}.cls-3{stroke-width:0.5px;}</style></defs><g id="star-01"><path class="cls-1" d="M89.83,135.58c.13-23.78,2-39,10-47.68,13.13-14.44,38.52-13,38.52-13l-16.81-.72A40.13,40.13,0,0,1,108,71.38c-6.45-2.63-11.19-6.66-13.81-13.22a27.07,27.07,0,0,1-1.72-7.64L89.83,20.35,87.22,50.52a27.07,27.07,0,0,1-1.72,7.64c-2.62,6.56-7.36,10.59-13.81,13.22a40.13,40.13,0,0,1-13.52,2.83l-16.81.72s25.38-1.47,38.52,13C87.79,96.61,89.7,111.8,89.83,135.58Z" transform="translate(-11.67 -20.31)"/><path class="cls-2" d="M92.5,60.09s3.32,11,12.83,12.66" transform="translate(-11.67 -20.31)"/><path class="cls-2" d="M81.66,85.88A21,21,0,0,0,69.76,78" transform="translate(-11.67 -20.31)"/></g><g id="star-02"><path class="cls-1" d="M49.64,134.87c0-8.18.7-13.41,3.42-16.41,4.52-5,13.26-4.46,13.26-4.46l-5.78-.25a14,14,0,0,1-4.66-1,8,8,0,0,1-4.75-4.56,8.68,8.68,0,0,1-.59-2.62l-.9-10.39-.9,10.39a9.32,9.32,0,0,1-.59,2.62,8,8,0,0,1-4.75,4.56,14,14,0,0,1-4.66,1L33,114s8.73-.51,13.25,4.46C48.94,121.46,49.59,126.69,49.64,134.87Z" transform="translate(-11.67 -20.31)"/><path class="cls-3" d="M50.22,109.83s.87,3.18,3.34,3.66" transform="translate(-11.67 -20.31)"/></g><g id="star-03"><path class="cls-1" d="M30.06,68.55c.05-9,.77-14.76,3.77-18.06,5-5.47,14.59-4.91,14.59-4.91l-6.37-.27a15.46,15.46,0,0,1-5.12-1.07,8.8,8.8,0,0,1-5.23-5,10,10,0,0,1-.65-2.9l-1-11.42-1,11.42a10.34,10.34,0,0,1-.65,2.9,8.83,8.83,0,0,1-5.23,5,15.51,15.51,0,0,1-5.12,1.07l-6.37.27s9.62-.56,14.59,4.91C29.29,53.79,30,59.54,30.06,68.55Z" transform="translate(-11.67 -20.31)"/><path class="cls-3" d="M24.4,45.31s4.2-1.13,5-4.71" transform="translate(-11.67 -20.31)"/></g></svg>