<svg xmlns="http://www.w3.org/2000/svg" viewBox="0 0 74.93 74.93"><title>Icon sun.</title><defs><style>.cls-1{fill:#fcbd4c;}.cls-2,.cls-3{fill:none;}.cls-2{stroke:#f4bf4a;}.cls-2,.cls-3,.cls-4{stroke-miterlimit:10;}.cls-3,.cls-4{stroke:#3a3a39;}.cls-4{fill:#0c0c0c;stroke-width:3px;}</style></defs><g id="base"><circle class="cls-1" cx="37.47" cy="36.93" r="21.23"/></g><g id="line-08"><line class="cls-2" y1="37.47" x2="11.35" y2="37.47"/></g><g id="line-07"><line class="cls-2" x1="9.72" y1="62.91" x2="17.75" y2="54.88"/></g><g id="line-06"><line class="cls-2" x1="37.47" y1="63.58" x2="37.47" y2="74.93"/></g><g id="line-05"><line class="cls-2" x1="65.36" y1="62.03" x2="57.33" y2="54"/></g><g id="line-04"><line class="cls-2" x1="63.58" y1="37.47" x2="74.93" y2="37.47"/></g><g id="line-03"><line class="cls-2" x1="54.68" y1="17.95" x2="62.71" y2="9.93"/></g><g id="line-02"><line class="cls-2" x1="37.47" x2="37.47" y2="11.35"/></g><g id="line-01"><line class="cls-2" x1="20.4" y1="17.07" x2="12.37" y2="9.04"/></g><g id="mouth"><line class="cls-3" x1="33.47" y1="46.93" x2="41.43" y2="46.93"/></g><g id="glass"><path class="cls-4" d="M37.08,35s1,11-7.45,10.71C21.74,45.41,22.51,35,22.51,35l35.21-.25s.63,7.7-4.16,10.17A6.64,6.64,0,0,1,47,44.45c-2.31-1.48-3.89-4.64-3.89-9.64" transform="translate(-2.67 -3.16)"/></g></svg>