<svg xmlns="http://www.w3.org/2000/svg" viewBox="0 0 101.79 74.59"><title>Icon watering can</title><defs><style>.cls-1{fill:#7baf9e;}.cls-2{fill:#1d4c4a;}.cls-3{fill:none;stroke:#1d4c4a;stroke-linecap:round;stroke-miterlimit:10;}</style></defs><g id="base"><path class="cls-1" d="M19.71,30.93V67.81a8.93,8.93,0,0,0,8.91,9H54a10.27,10.27,0,0,0,10.25-10.3v-34a3.75,3.75,0,0,0-3.75-3.76H21.9A2.19,2.19,0,0,0,19.71,30.93Z" transform="translate(-2.86 -2.18)"/></g><g id="element-right"><path class="cls-1" d="M93.69,24,59.3,50.32l-.83,19.05L97.39,27.44l7.26.14s-8.08-5.48-11-11.65Z" transform="translate(-2.86 -2.18)"/></g><g id="element-left"><path class="cls-1" d="M19.88,60.73c-16.29-9.43-14-21.91-7.31-24,3.53-1.11,7.31,1.51,7.31,1.51V33.31S5.1,26.09,3.06,42.07C.69,60.66,19.88,65.46,19.88,65.46Z" transform="translate(-2.86 -2.18)"/></g><g id="element-right-2" data-name="element-right"><path class="cls-1" d="M34,29.08s-1-19.78,6.29-25.66a5.75,5.75,0,0,1,7.6.41c3,2.85,6.82,10.24,6,25.53l-5.58.27S51.22,6.37,44,6.08c-6.17-.24-3.89,23.55-3.89,23.55Z" transform="translate(-2.86 -2.18)"/></g><g id="eye-left"><circle class="cls-2" cx="27.69" cy="46.8" r="1.59"/></g><g id="eye-right"><circle class="cls-2" cx="49.37" cy="46.8" r="1.59"/></g><g id="mouth"><path class="cls-3" d="M36.58,55.81l1.37,2c1.93,2.91,5,3,7,0l1.37-2" transform="translate(-2.86 -2.18)"/></g></svg>